<mxfile host="app.diagrams.net" modified="2022-06-09T07:43:19.824Z" agent="5.0 (Windows NT 10.0; Win64; x64) AppleWebKit/537.36 (KHTML, like Gecko) Chrome/102.0.5005.63 Safari/537.36" etag="SQxv3c4Ssi1q7nBIOnBp" version="19.0.2" type="github">
  <diagram id="grCGv4p8HMgYhj-p3sTz" name="第 1 页">
    <mxGraphModel dx="1422" dy="772" grid="0" gridSize="10" guides="1" tooltips="1" connect="1" arrows="1" fold="1" page="1" pageScale="1" pageWidth="3300" pageHeight="4681" math="0" shadow="0">
      <root>
        <mxCell id="0" />
        <mxCell id="1" parent="0" />
        <mxCell id="kx_1KyyJeE4FJRKxf5E7-43" value="" style="rounded=0;whiteSpace=wrap;html=1;dashed=1;" vertex="1" parent="1">
          <mxGeometry x="202" y="484" width="440" height="285" as="geometry" />
        </mxCell>
        <mxCell id="kx_1KyyJeE4FJRKxf5E7-15" style="edgeStyle=orthogonalEdgeStyle;rounded=0;orthogonalLoop=1;jettySize=auto;html=1;exitX=0.5;exitY=1;exitDx=0;exitDy=0;" edge="1" parent="1" source="kx_1KyyJeE4FJRKxf5E7-1" target="kx_1KyyJeE4FJRKxf5E7-10">
          <mxGeometry relative="1" as="geometry" />
        </mxCell>
        <mxCell id="kx_1KyyJeE4FJRKxf5E7-1" value="String" style="rounded=0;whiteSpace=wrap;html=1;" vertex="1" parent="1">
          <mxGeometry x="249" y="152" width="110" height="40" as="geometry" />
        </mxCell>
        <mxCell id="kx_1KyyJeE4FJRKxf5E7-6" value="List" style="rounded=0;whiteSpace=wrap;html=1;" vertex="1" parent="1">
          <mxGeometry x="433" y="152" width="110" height="40" as="geometry" />
        </mxCell>
        <mxCell id="kx_1KyyJeE4FJRKxf5E7-7" value="Hash" style="rounded=0;whiteSpace=wrap;html=1;" vertex="1" parent="1">
          <mxGeometry x="616" y="152" width="110" height="40" as="geometry" />
        </mxCell>
        <mxCell id="kx_1KyyJeE4FJRKxf5E7-8" value="Sorted Set" style="rounded=0;whiteSpace=wrap;html=1;" vertex="1" parent="1">
          <mxGeometry x="798" y="150" width="110" height="40" as="geometry" />
        </mxCell>
        <mxCell id="kx_1KyyJeE4FJRKxf5E7-9" value="Set" style="rounded=0;whiteSpace=wrap;html=1;" vertex="1" parent="1">
          <mxGeometry x="976" y="150" width="110" height="40" as="geometry" />
        </mxCell>
        <mxCell id="kx_1KyyJeE4FJRKxf5E7-10" value="SDS" style="rounded=0;whiteSpace=wrap;html=1;" vertex="1" parent="1">
          <mxGeometry x="249" y="272" width="110" height="40" as="geometry" />
        </mxCell>
        <mxCell id="kx_1KyyJeE4FJRKxf5E7-11" value="双向链表" style="rounded=0;whiteSpace=wrap;html=1;" vertex="1" parent="1">
          <mxGeometry x="401" y="272" width="110" height="40" as="geometry" />
        </mxCell>
        <mxCell id="kx_1KyyJeE4FJRKxf5E7-12" value="压缩链表" style="rounded=0;whiteSpace=wrap;html=1;" vertex="1" parent="1">
          <mxGeometry x="554" y="272" width="110" height="40" as="geometry" />
        </mxCell>
        <mxCell id="kx_1KyyJeE4FJRKxf5E7-13" value="哈希表" style="rounded=0;whiteSpace=wrap;html=1;" vertex="1" parent="1">
          <mxGeometry x="707" y="272" width="110" height="40" as="geometry" />
        </mxCell>
        <mxCell id="kx_1KyyJeE4FJRKxf5E7-14" value="跳跃表" style="rounded=0;whiteSpace=wrap;html=1;" vertex="1" parent="1">
          <mxGeometry x="853" y="272" width="110" height="40" as="geometry" />
        </mxCell>
        <mxCell id="kx_1KyyJeE4FJRKxf5E7-16" value="整数集合" style="rounded=0;whiteSpace=wrap;html=1;" vertex="1" parent="1">
          <mxGeometry x="999" y="272" width="110" height="40" as="geometry" />
        </mxCell>
        <mxCell id="kx_1KyyJeE4FJRKxf5E7-18" value="" style="endArrow=classic;html=1;rounded=0;exitX=0.409;exitY=1;exitDx=0;exitDy=0;exitPerimeter=0;entryX=0.25;entryY=0;entryDx=0;entryDy=0;" edge="1" parent="1" source="kx_1KyyJeE4FJRKxf5E7-6" target="kx_1KyyJeE4FJRKxf5E7-11">
          <mxGeometry width="50" height="50" relative="1" as="geometry">
            <mxPoint x="695" y="420" as="sourcePoint" />
            <mxPoint x="745" y="370" as="targetPoint" />
          </mxGeometry>
        </mxCell>
        <mxCell id="kx_1KyyJeE4FJRKxf5E7-19" value="" style="endArrow=classic;html=1;rounded=0;" edge="1" parent="1" target="kx_1KyyJeE4FJRKxf5E7-12">
          <mxGeometry width="50" height="50" relative="1" as="geometry">
            <mxPoint x="476" y="191" as="sourcePoint" />
            <mxPoint x="438.5" y="282" as="targetPoint" />
          </mxGeometry>
        </mxCell>
        <mxCell id="kx_1KyyJeE4FJRKxf5E7-20" value="" style="endArrow=classic;html=1;rounded=0;exitX=0.418;exitY=1.025;exitDx=0;exitDy=0;exitPerimeter=0;entryX=0.336;entryY=0.025;entryDx=0;entryDy=0;entryPerimeter=0;" edge="1" parent="1" source="kx_1KyyJeE4FJRKxf5E7-7" target="kx_1KyyJeE4FJRKxf5E7-12">
          <mxGeometry width="50" height="50" relative="1" as="geometry">
            <mxPoint x="486" y="201" as="sourcePoint" />
            <mxPoint x="596" y="271" as="targetPoint" />
          </mxGeometry>
        </mxCell>
        <mxCell id="kx_1KyyJeE4FJRKxf5E7-21" value="" style="endArrow=classic;html=1;rounded=0;exitX=0.445;exitY=1.025;exitDx=0;exitDy=0;exitPerimeter=0;entryX=0.391;entryY=0.025;entryDx=0;entryDy=0;entryPerimeter=0;" edge="1" parent="1" source="kx_1KyyJeE4FJRKxf5E7-7" target="kx_1KyyJeE4FJRKxf5E7-13">
          <mxGeometry width="50" height="50" relative="1" as="geometry">
            <mxPoint x="496" y="211" as="sourcePoint" />
            <mxPoint x="747" y="270" as="targetPoint" />
          </mxGeometry>
        </mxCell>
        <mxCell id="kx_1KyyJeE4FJRKxf5E7-22" value="" style="endArrow=classic;html=1;rounded=0;exitX=0.4;exitY=1;exitDx=0;exitDy=0;exitPerimeter=0;entryX=0.5;entryY=0;entryDx=0;entryDy=0;" edge="1" parent="1" source="kx_1KyyJeE4FJRKxf5E7-8" target="kx_1KyyJeE4FJRKxf5E7-12">
          <mxGeometry width="50" height="50" relative="1" as="geometry">
            <mxPoint x="506" y="221" as="sourcePoint" />
            <mxPoint x="612.6633663366338" y="302" as="targetPoint" />
          </mxGeometry>
        </mxCell>
        <mxCell id="kx_1KyyJeE4FJRKxf5E7-23" value="" style="endArrow=classic;html=1;rounded=0;" edge="1" parent="1" target="kx_1KyyJeE4FJRKxf5E7-14">
          <mxGeometry width="50" height="50" relative="1" as="geometry">
            <mxPoint x="841" y="191" as="sourcePoint" />
            <mxPoint x="622.6633663366338" y="312" as="targetPoint" />
          </mxGeometry>
        </mxCell>
        <mxCell id="kx_1KyyJeE4FJRKxf5E7-24" value="" style="endArrow=classic;html=1;rounded=0;entryX=0.5;entryY=0;entryDx=0;entryDy=0;" edge="1" parent="1" target="kx_1KyyJeE4FJRKxf5E7-13">
          <mxGeometry width="50" height="50" relative="1" as="geometry">
            <mxPoint x="1031" y="188" as="sourcePoint" />
            <mxPoint x="632.6633663366338" y="322" as="targetPoint" />
          </mxGeometry>
        </mxCell>
        <mxCell id="kx_1KyyJeE4FJRKxf5E7-25" value="" style="endArrow=classic;html=1;rounded=0;" edge="1" parent="1" target="kx_1KyyJeE4FJRKxf5E7-16">
          <mxGeometry width="50" height="50" relative="1" as="geometry">
            <mxPoint x="1031" y="188" as="sourcePoint" />
            <mxPoint x="642.6633663366338" y="332" as="targetPoint" />
          </mxGeometry>
        </mxCell>
        <mxCell id="kx_1KyyJeE4FJRKxf5E7-61" style="edgeStyle=orthogonalEdgeStyle;rounded=0;orthogonalLoop=1;jettySize=auto;html=1;exitX=0.5;exitY=1;exitDx=0;exitDy=0;entryX=0.5;entryY=0;entryDx=0;entryDy=0;" edge="1" parent="1" source="kx_1KyyJeE4FJRKxf5E7-27" target="kx_1KyyJeE4FJRKxf5E7-28">
          <mxGeometry relative="1" as="geometry" />
        </mxCell>
        <mxCell id="kx_1KyyJeE4FJRKxf5E7-27" value="bind/listen" style="rounded=1;whiteSpace=wrap;html=1;" vertex="1" parent="1">
          <mxGeometry x="375" y="489" width="105" height="35" as="geometry" />
        </mxCell>
        <mxCell id="kx_1KyyJeE4FJRKxf5E7-28" value="epoll_wait" style="rounded=1;whiteSpace=wrap;html=1;" vertex="1" parent="1">
          <mxGeometry x="375" y="553" width="105" height="35" as="geometry" />
        </mxCell>
        <mxCell id="kx_1KyyJeE4FJRKxf5E7-54" style="edgeStyle=orthogonalEdgeStyle;rounded=0;orthogonalLoop=1;jettySize=auto;html=1;exitX=0.5;exitY=1;exitDx=0;exitDy=0;" edge="1" parent="1" source="kx_1KyyJeE4FJRKxf5E7-29" target="kx_1KyyJeE4FJRKxf5E7-32">
          <mxGeometry relative="1" as="geometry" />
        </mxCell>
        <mxCell id="kx_1KyyJeE4FJRKxf5E7-29" value="套接字&lt;br&gt;FD" style="rounded=0;whiteSpace=wrap;html=1;" vertex="1" parent="1">
          <mxGeometry x="240" y="638" width="70" height="38" as="geometry" />
        </mxCell>
        <mxCell id="kx_1KyyJeE4FJRKxf5E7-55" style="edgeStyle=orthogonalEdgeStyle;rounded=0;orthogonalLoop=1;jettySize=auto;html=1;exitX=0.5;exitY=1;exitDx=0;exitDy=0;entryX=0.5;entryY=0;entryDx=0;entryDy=0;" edge="1" parent="1" source="kx_1KyyJeE4FJRKxf5E7-30" target="kx_1KyyJeE4FJRKxf5E7-33">
          <mxGeometry relative="1" as="geometry" />
        </mxCell>
        <mxCell id="kx_1KyyJeE4FJRKxf5E7-30" value="套接字&lt;br&gt;FD" style="rounded=0;whiteSpace=wrap;html=1;" vertex="1" parent="1">
          <mxGeometry x="392.5" y="638" width="70" height="38" as="geometry" />
        </mxCell>
        <mxCell id="kx_1KyyJeE4FJRKxf5E7-56" style="edgeStyle=orthogonalEdgeStyle;rounded=0;orthogonalLoop=1;jettySize=auto;html=1;exitX=0.5;exitY=1;exitDx=0;exitDy=0;entryX=0.5;entryY=0;entryDx=0;entryDy=0;" edge="1" parent="1" source="kx_1KyyJeE4FJRKxf5E7-31" target="kx_1KyyJeE4FJRKxf5E7-34">
          <mxGeometry relative="1" as="geometry" />
        </mxCell>
        <mxCell id="kx_1KyyJeE4FJRKxf5E7-67" style="edgeStyle=orthogonalEdgeStyle;rounded=0;orthogonalLoop=1;jettySize=auto;html=1;exitX=1;exitY=0.5;exitDx=0;exitDy=0;" edge="1" parent="1" source="kx_1KyyJeE4FJRKxf5E7-31">
          <mxGeometry relative="1" as="geometry">
            <mxPoint x="685" y="657" as="targetPoint" />
          </mxGeometry>
        </mxCell>
        <mxCell id="kx_1KyyJeE4FJRKxf5E7-31" value="套接字&lt;br&gt;FD" style="rounded=0;whiteSpace=wrap;html=1;" vertex="1" parent="1">
          <mxGeometry x="526" y="638" width="70" height="38" as="geometry" />
        </mxCell>
        <mxCell id="kx_1KyyJeE4FJRKxf5E7-32" value="epoll_wait" style="rounded=1;whiteSpace=wrap;html=1;" vertex="1" parent="1">
          <mxGeometry x="222.5" y="715" width="105" height="35" as="geometry" />
        </mxCell>
        <mxCell id="kx_1KyyJeE4FJRKxf5E7-33" value="epoll_wait" style="rounded=1;whiteSpace=wrap;html=1;" vertex="1" parent="1">
          <mxGeometry x="375" y="715" width="105" height="35" as="geometry" />
        </mxCell>
        <mxCell id="kx_1KyyJeE4FJRKxf5E7-34" value="epoll_wait" style="rounded=1;whiteSpace=wrap;html=1;" vertex="1" parent="1">
          <mxGeometry x="508.5" y="715" width="105" height="35" as="geometry" />
        </mxCell>
        <mxCell id="kx_1KyyJeE4FJRKxf5E7-36" value="" style="shape=cylinder3;whiteSpace=wrap;html=1;boundedLbl=1;backgroundOutline=1;size=15;" vertex="1" parent="1">
          <mxGeometry x="387" y="803" width="70.5" height="97" as="geometry" />
        </mxCell>
        <mxCell id="kx_1KyyJeE4FJRKxf5E7-39" value="" style="rounded=1;whiteSpace=wrap;html=1;dashed=1;" vertex="1" parent="1">
          <mxGeometry x="508.5" y="927" width="101" height="129" as="geometry" />
        </mxCell>
        <mxCell id="kx_1KyyJeE4FJRKxf5E7-40" value="epoll_wait" style="rounded=1;whiteSpace=wrap;html=1;" vertex="1" parent="1">
          <mxGeometry x="516.5" y="942" width="85" height="23" as="geometry" />
        </mxCell>
        <mxCell id="kx_1KyyJeE4FJRKxf5E7-41" value="epoll_wait" style="rounded=1;whiteSpace=wrap;html=1;" vertex="1" parent="1">
          <mxGeometry x="516" y="982" width="85" height="23" as="geometry" />
        </mxCell>
        <mxCell id="kx_1KyyJeE4FJRKxf5E7-42" value="epoll_wait" style="rounded=1;whiteSpace=wrap;html=1;" vertex="1" parent="1">
          <mxGeometry x="516.5" y="1022" width="85" height="23" as="geometry" />
        </mxCell>
        <mxCell id="kx_1KyyJeE4FJRKxf5E7-44" value="return" style="rounded=0;whiteSpace=wrap;html=1;dashed=1;" vertex="1" parent="1">
          <mxGeometry x="662" y="969" width="104" height="36" as="geometry" />
        </mxCell>
        <mxCell id="kx_1KyyJeE4FJRKxf5E7-46" value="" style="endArrow=classic;html=1;rounded=0;exitX=1;exitY=0.25;exitDx=0;exitDy=0;entryX=0;entryY=0.25;entryDx=0;entryDy=0;" edge="1" parent="1" source="kx_1KyyJeE4FJRKxf5E7-40" target="kx_1KyyJeE4FJRKxf5E7-44">
          <mxGeometry width="50" height="50" relative="1" as="geometry">
            <mxPoint x="858" y="885" as="sourcePoint" />
            <mxPoint x="908" y="835" as="targetPoint" />
          </mxGeometry>
        </mxCell>
        <mxCell id="kx_1KyyJeE4FJRKxf5E7-47" value="" style="endArrow=classic;html=1;rounded=0;exitX=1;exitY=0.5;exitDx=0;exitDy=0;" edge="1" parent="1" source="kx_1KyyJeE4FJRKxf5E7-41">
          <mxGeometry width="50" height="50" relative="1" as="geometry">
            <mxPoint x="611.5" y="957.75" as="sourcePoint" />
            <mxPoint x="662" y="990" as="targetPoint" />
          </mxGeometry>
        </mxCell>
        <mxCell id="kx_1KyyJeE4FJRKxf5E7-48" value="" style="endArrow=classic;html=1;rounded=0;exitX=1;exitY=0.5;exitDx=0;exitDy=0;" edge="1" parent="1" source="kx_1KyyJeE4FJRKxf5E7-42">
          <mxGeometry width="50" height="50" relative="1" as="geometry">
            <mxPoint x="621.5" y="967.75" as="sourcePoint" />
            <mxPoint x="661" y="998" as="targetPoint" />
          </mxGeometry>
        </mxCell>
        <mxCell id="kx_1KyyJeE4FJRKxf5E7-49" value="" style="endArrow=classic;html=1;rounded=0;exitX=0.383;exitY=0.99;exitDx=0;exitDy=0;exitPerimeter=0;" edge="1" parent="1" source="kx_1KyyJeE4FJRKxf5E7-36">
          <mxGeometry width="50" height="50" relative="1" as="geometry">
            <mxPoint x="631.5" y="977.75" as="sourcePoint" />
            <mxPoint x="506" y="983" as="targetPoint" />
          </mxGeometry>
        </mxCell>
        <mxCell id="kx_1KyyJeE4FJRKxf5E7-50" value="" style="endArrow=classic;html=1;rounded=0;exitX=0.5;exitY=1;exitDx=0;exitDy=0;entryX=0.241;entryY=0.041;entryDx=0;entryDy=0;entryPerimeter=0;" edge="1" parent="1" source="kx_1KyyJeE4FJRKxf5E7-32" target="kx_1KyyJeE4FJRKxf5E7-36">
          <mxGeometry width="50" height="50" relative="1" as="geometry">
            <mxPoint x="641.5" y="987.75" as="sourcePoint" />
            <mxPoint x="702" y="1018" as="targetPoint" />
          </mxGeometry>
        </mxCell>
        <mxCell id="kx_1KyyJeE4FJRKxf5E7-51" value="" style="endArrow=classic;html=1;rounded=0;exitX=0.429;exitY=0.971;exitDx=0;exitDy=0;exitPerimeter=0;entryX=0.5;entryY=0;entryDx=0;entryDy=0;entryPerimeter=0;" edge="1" parent="1" source="kx_1KyyJeE4FJRKxf5E7-33" target="kx_1KyyJeE4FJRKxf5E7-36">
          <mxGeometry width="50" height="50" relative="1" as="geometry">
            <mxPoint x="285" y="760" as="sourcePoint" />
            <mxPoint x="424" y="801" as="targetPoint" />
          </mxGeometry>
        </mxCell>
        <mxCell id="kx_1KyyJeE4FJRKxf5E7-52" value="" style="endArrow=classic;html=1;rounded=0;entryX=0.752;entryY=0.031;entryDx=0;entryDy=0;entryPerimeter=0;" edge="1" parent="1" source="kx_1KyyJeE4FJRKxf5E7-34" target="kx_1KyyJeE4FJRKxf5E7-36">
          <mxGeometry width="50" height="50" relative="1" as="geometry">
            <mxPoint x="295" y="770" as="sourcePoint" />
            <mxPoint x="423.9905000000001" y="826.9770000000001" as="targetPoint" />
          </mxGeometry>
        </mxCell>
        <mxCell id="kx_1KyyJeE4FJRKxf5E7-58" value="" style="endArrow=classic;html=1;rounded=0;" edge="1" parent="1" source="kx_1KyyJeE4FJRKxf5E7-28">
          <mxGeometry width="50" height="50" relative="1" as="geometry">
            <mxPoint x="430.0450000000001" y="758.9849999999999" as="sourcePoint" />
            <mxPoint x="428" y="639" as="targetPoint" />
          </mxGeometry>
        </mxCell>
        <mxCell id="kx_1KyyJeE4FJRKxf5E7-59" value="" style="endArrow=classic;html=1;rounded=0;exitX=0.429;exitY=0.971;exitDx=0;exitDy=0;exitPerimeter=0;entryX=0.5;entryY=0;entryDx=0;entryDy=0;" edge="1" parent="1" source="kx_1KyyJeE4FJRKxf5E7-28" target="kx_1KyyJeE4FJRKxf5E7-29">
          <mxGeometry width="50" height="50" relative="1" as="geometry">
            <mxPoint x="437.6277372262773" y="598" as="sourcePoint" />
            <mxPoint x="438" y="649" as="targetPoint" />
          </mxGeometry>
        </mxCell>
        <mxCell id="kx_1KyyJeE4FJRKxf5E7-60" value="" style="endArrow=classic;html=1;rounded=0;exitX=0.676;exitY=1;exitDx=0;exitDy=0;exitPerimeter=0;entryX=0.5;entryY=0;entryDx=0;entryDy=0;" edge="1" parent="1" source="kx_1KyyJeE4FJRKxf5E7-28" target="kx_1KyyJeE4FJRKxf5E7-31">
          <mxGeometry width="50" height="50" relative="1" as="geometry">
            <mxPoint x="447.6277372262773" y="608" as="sourcePoint" />
            <mxPoint x="448" y="659" as="targetPoint" />
          </mxGeometry>
        </mxCell>
        <mxCell id="kx_1KyyJeE4FJRKxf5E7-63" value="事件队列" style="text;html=1;strokeColor=none;fillColor=none;align=center;verticalAlign=middle;whiteSpace=wrap;rounded=0;dashed=1;" vertex="1" parent="1">
          <mxGeometry x="327.5" y="840" width="60" height="30" as="geometry" />
        </mxCell>
        <mxCell id="kx_1KyyJeE4FJRKxf5E7-64" value="事件入队" style="text;html=1;strokeColor=none;fillColor=none;align=center;verticalAlign=middle;whiteSpace=wrap;rounded=0;dashed=1;" vertex="1" parent="1">
          <mxGeometry x="279" y="771" width="60" height="30" as="geometry" />
        </mxCell>
        <mxCell id="kx_1KyyJeE4FJRKxf5E7-65" value="事件出队" style="text;html=1;strokeColor=none;fillColor=none;align=center;verticalAlign=middle;whiteSpace=wrap;rounded=0;dashed=1;" vertex="1" parent="1">
          <mxGeometry x="409" y="938.5" width="60" height="30" as="geometry" />
        </mxCell>
        <mxCell id="kx_1KyyJeE4FJRKxf5E7-66" value="事件回调函数" style="text;html=1;strokeColor=none;fillColor=none;align=center;verticalAlign=middle;whiteSpace=wrap;rounded=0;dashed=1;" vertex="1" parent="1">
          <mxGeometry x="601" y="891" width="78" height="30" as="geometry" />
        </mxCell>
        <mxCell id="kx_1KyyJeE4FJRKxf5E7-68" value="监听套接字或已连接套接字" style="text;html=1;strokeColor=none;fillColor=none;align=center;verticalAlign=middle;whiteSpace=wrap;rounded=0;dashed=1;" vertex="1" parent="1">
          <mxGeometry x="685" y="638" width="78" height="30" as="geometry" />
        </mxCell>
      </root>
    </mxGraphModel>
  </diagram>
</mxfile>
